{
	"asset":{
		"version":"2.0",
		"generator":"Created using the official Cinema 4D glTF Exporter 1.000x290161"
	},
	"scenes":[{
		"nodes":[0,
		1,
		2,
		3,
		4,
		5,
		6,
		7]
	}],
	"nodes":[{
		"name":"deck",
		"translation":[0.000002375191115788766,
		25.200000762939454,
		2.880000114440918],
		"rotation":[1.7457269052556513e-7,
		6.123232939436859e-17,
		1.0,
		-6.123234924670329e-17],
		"scale":[1.0,
		1.0,
		1.0],
		"mesh":0
	},
	{
		"name":"shape",
		"translation":[0.000002375191115788766,
		25.200000762939454,
		2.920320987701416],
		"rotation":[1.7457269052556513e-7,
		6.123232939436859e-17,
		1.0,
		-6.123234924670329e-17],
		"scale":[1.0,
		1.0,
		1.0],
		"mesh":1
	},
	{
		"name":"lixa",
		"translation":[0.000002375191115788766,
		25.200000762939454,
		2.920320987701416],
		"rotation":[1.7457269052556513e-7,
		6.123232939436859e-17,
		1.0,
		-6.123234924670329e-17],
		"scale":[1.0,
		1.0,
		1.0],
		"mesh":2
	},
	{
		"name":"trucks",
		"translation":[-0.000003658923787952517,
		-1.7999998331069947,
		-0.002567445393651724],
		"rotation":[0.0,
		0.0,
		0.0,
		-1.0],
		"scale":[1.0,
		1.0,
		1.0],
		"mesh":3
	},
	{
		"name":"amortecedores",
		"translation":[-0.0000017937733218786889,
		-1.8000000715255738,
		-0.35604074597358706],
		"rotation":[0.0,
		0.0,
		1.2246468525851679e-16,
		1.0],
		"scale":[1.0,
		1.0,
		1.0],
		"mesh":4
	},
	{
		"name":"rodas",
		"translation":[-0.000003760409072128823,
		-1.799999713897705,
		-2.0796899795532228],
		"rotation":[0.0,
		0.0,
		0.0,
		-1.0],
		"scale":[1.0,
		1.0,
		1.0],
		"mesh":5
	},
	{
		"name":"rolamentos",
		"translation":[-0.00000381649806513451,
		-1.7999987602233887,
		-2.0796897411346437],
		"rotation":[0.0,
		0.0,
		0.0,
		-1.0],
		"scale":[1.0,
		1.0,
		1.0],
		"mesh":6
	},
	{
		"name":"parafusos",
		"translation":[-0.000003998087322543142,
		-1.7999998331069947,
		0.06842920929193497],
		"rotation":[0.0,
		0.0,
		0.0,
		-1.0],
		"scale":[1.0,
		1.0,
		1.0],
		"mesh":7
	}],
	"meshes":[{
		"primitives":[{
			"attributes":{
				"POSITION":1,
				"NORMAL":2
			},
			"indices":0,
			"material":0
		}]
	},
	{
		"primitives":[{
			"attributes":{
				"POSITION":4,
				"NORMAL":5
			},
			"indices":3,
			"material":1
		}]
	},
	{
		"primitives":[{
			"attributes":{
				"POSITION":7,
				"NORMAL":8
			},
			"indices":6,
			"material":2
		}]
	},
	{
		"primitives":[{
			"attributes":{
				"POSITION":10,
				"NORMAL":11
			},
			"indices":9,
			"material":3
		}]
	},
	{
		"primitives":[{
			"attributes":{
				"POSITION":13,
				"NORMAL":14
			},
			"indices":12,
			"material":4
		}]
	},
	{
		"primitives":[{
			"attributes":{
				"POSITION":16,
				"NORMAL":17
			},
			"indices":15,
			"material":5
		}]
	},
	{
		"primitives":[{
			"attributes":{
				"POSITION":19,
				"NORMAL":20
			},
			"indices":18,
			"material":6
		}]
	},
	{
		"primitives":[{
			"attributes":{
				"POSITION":22,
				"NORMAL":23
			},
			"indices":21,
			"material":7
		}]
	}],
	"accessors":[{
		"bufferView":0,
		"type":"SCALAR",
		"componentType":5123,
		"count":804,
		"byteOffset":0,
		"min":[0],
		"max":[160]
	},
	{
		"bufferView":1,
		"type":"VEC3",
		"componentType":5126,
		"count":161,
		"byteOffset":0,
		"min":[-9.595162391662598,
		-11.339376449584961,
		-0.07004781812429428],
		"max":[9.595162391662598,
		65.3393783569336,
		4.387744903564453]
	},
	{
		"bufferView":1,
		"type":"VEC3",
		"componentType":5126,
		"count":161,
		"byteOffset":12,
		"min":[-0.0971856340765953,
		-0.5242853164672852,
		-0.9999146461486816],
		"max":[0.0971856340765953,
		0.523960292339325,
		-0.8515427708625794]
	},
	{
		"bufferView":2,
		"type":"SCALAR",
		"componentType":5123,
		"count":3660,
		"byteOffset":0,
		"min":[0],
		"max":[650]
	},
	{
		"bufferView":3,
		"type":"VEC3",
		"componentType":5126,
		"count":651,
		"byteOffset":0,
		"min":[-10.014421463012696,
		-11.520390510559082,
		-0.07004781812429428],
		"max":[10.014421463012696,
		65.5203857421875,
		5.2726030349731449]
	},
	{
		"bufferView":3,
		"type":"VEC3",
		"componentType":5126,
		"count":651,
		"byteOffset":12,
		"min":[-0.9971352219581604,
		-0.9978537559509277,
		-0.9999146461486816],
		"max":[0.9971352219581604,
		0.9978525638580322,
		0.9997952580451965]
	},
	{
		"bufferView":4,
		"type":"SCALAR",
		"componentType":5123,
		"count":804,
		"byteOffset":0,
		"min":[0],
		"max":[155]
	},
	{
		"bufferView":5,
		"type":"VEC3",
		"componentType":5126,
		"count":156,
		"byteOffset":0,
		"min":[-9.549577713012696,
		-10.791776657104493,
		0.9299828410148621],
		"max":[9.549577713012696,
		64.79177856445313,
		5.224485397338867]
	},
	{
		"bufferView":5,
		"type":"VEC3",
		"componentType":5126,
		"count":156,
		"byteOffset":12,
		"min":[-0.07944948226213455,
		-0.5252465009689331,
		0.8509490489959717],
		"max":[0.07944948226213455,
		0.5252482891082764,
		0.9997952580451965]
	},
	{
		"bufferView":6,
		"type":"SCALAR",
		"componentType":5123,
		"count":13668,
		"byteOffset":0,
		"min":[0],
		"max":[3377]
	},
	{
		"bufferView":7,
		"type":"VEC3",
		"componentType":5126,
		"count":3378,
		"byteOffset":0,
		"min":[-10.050003051757813,
		-25.0,
		-2.9228904247283937],
		"max":[10.050003051757813,
		25.0,
		2.9228904247283937]
	},
	{
		"bufferView":7,
		"type":"VEC3",
		"componentType":5126,
		"count":3378,
		"byteOffset":12,
		"min":[-1.0,
		-1.0,
		-1.0],
		"max":[1.0,
		1.0,
		1.0]
	},
	{
		"bufferView":8,
		"type":"SCALAR",
		"componentType":5123,
		"count":6720,
		"byteOffset":0,
		"min":[0],
		"max":[1813]
	},
	{
		"bufferView":9,
		"type":"VEC3",
		"componentType":5126,
		"count":1814,
		"byteOffset":0,
		"min":[-1.2000000476837159,
		-20.991859436035158,
		-1.6692830324172974],
		"max":[1.2000000476837159,
		20.991859436035158,
		1.6692830324172974]
	},
	{
		"bufferView":9,
		"type":"VEC3",
		"componentType":5126,
		"count":1814,
		"byteOffset":12,
		"min":[-1.0,
		-0.9986580610275269,
		-0.999797523021698],
		"max":[1.0,
		0.9976649284362793,
		0.999797523021698]
	},
	{
		"bufferView":10,
		"type":"SCALAR",
		"componentType":5123,
		"count":11424,
		"byteOffset":0,
		"min":[0],
		"max":[3223]
	},
	{
		"bufferView":11,
		"type":"VEC3",
		"componentType":5126,
		"count":3224,
		"byteOffset":0,
		"min":[-9.900003433227539,
		-24.96192169189453,
		-2.961914539337158],
		"max":[9.900003433227539,
		24.96192169189453,
		2.961914539337158]
	},
	{
		"bufferView":11,
		"type":"VEC3",
		"componentType":5126,
		"count":3224,
		"byteOffset":12,
		"min":[-1.0,
		-1.0,
		-1.0],
		"max":[1.0,
		1.0,
		1.0]
	},
	{
		"bufferView":12,
		"type":"SCALAR",
		"componentType":5123,
		"count":16128,
		"byteOffset":0,
		"min":[0],
		"max":[7507]
	},
	{
		"bufferView":13,
		"type":"VEC3",
		"componentType":5126,
		"count":7508,
		"byteOffset":0,
		"min":[-9.500001907348633,
		-23.43001365661621,
		-1.430006742477417],
		"max":[9.500001907348633,
		23.43001365661621,
		1.430006742477417]
	},
	{
		"bufferView":13,
		"type":"VEC3",
		"componentType":5126,
		"count":7508,
		"byteOffset":12,
		"min":[-1.0,
		-1.0,
		-1.0],
		"max":[1.0,
		1.0,
		1.0]
	},
	{
		"bufferView":14,
		"type":"SCALAR",
		"componentType":5123,
		"count":10296,
		"byteOffset":0,
		"min":[0],
		"max":[3523]
	},
	{
		"bufferView":15,
		"type":"VEC3",
		"componentType":5126,
		"count":3524,
		"byteOffset":0,
		"min":[-10.000000953674317,
		-23.933013916015626,
		-2.798129081726074],
		"max":[10.000000953674317,
		23.933013916015626,
		2.798129081726074]
	},
	{
		"bufferView":15,
		"type":"VEC3",
		"componentType":5126,
		"count":3524,
		"byteOffset":12,
		"min":[-1.0,
		-1.0,
		-1.0],
		"max":[1.0,
		1.0,
		1.0]
	}],
	"bufferViews":[{
		"buffer":0,
		"byteOffset":0,
		"byteLength":1608,
		"target":34963
	},
	{
		"buffer":0,
		"byteOffset":1608,
		"byteLength":3864,
		"target":34962,
		"byteStride":24
	},
	{
		"buffer":1,
		"byteOffset":0,
		"byteLength":7320,
		"target":34963
	},
	{
		"buffer":1,
		"byteOffset":7320,
		"byteLength":15624,
		"target":34962,
		"byteStride":24
	},
	{
		"buffer":2,
		"byteOffset":0,
		"byteLength":1608,
		"target":34963
	},
	{
		"buffer":2,
		"byteOffset":1608,
		"byteLength":3744,
		"target":34962,
		"byteStride":24
	},
	{
		"buffer":3,
		"byteOffset":0,
		"byteLength":27336,
		"target":34963
	},
	{
		"buffer":3,
		"byteOffset":27336,
		"byteLength":81072,
		"target":34962,
		"byteStride":24
	},
	{
		"buffer":4,
		"byteOffset":0,
		"byteLength":13440,
		"target":34963
	},
	{
		"buffer":4,
		"byteOffset":13440,
		"byteLength":43536,
		"target":34962,
		"byteStride":24
	},
	{
		"buffer":5,
		"byteOffset":0,
		"byteLength":22848,
		"target":34963
	},
	{
		"buffer":5,
		"byteOffset":22848,
		"byteLength":77376,
		"target":34962,
		"byteStride":24
	},
	{
		"buffer":6,
		"byteOffset":0,
		"byteLength":32256,
		"target":34963
	},
	{
		"buffer":6,
		"byteOffset":32256,
		"byteLength":180192,
		"target":34962,
		"byteStride":24
	},
	{
		"buffer":7,
		"byteOffset":0,
		"byteLength":20592,
		"target":34963
	},
	{
		"buffer":7,
		"byteOffset":20592,
		"byteLength":84576,
		"target":34962,
		"byteStride":24
	}],
	"buffers":[{
		"uri":"data:application/octet-stream;base64,",
		"byteLength":5472
	},
	{
		"uri":"data:application/octet-stream;base64,",
		"byteLength":22944
	},
	{
		"uri":"data:application/octet-stream;base64,",
		"byteLength":5352
	},
	{
		"uri":"data:application/octet-stream;base64,",
		"byteLength":108408
	},
	{
		"uri":"data:application/octet-stream;base64,",
		"byteLength":56976
	},
	{
		"uri":"data:application/octet-stream;base64,",
		"byteLength":100224
	},
	{
		"uri":"data:application/octet-stream;base64,",
		"byteLength":212448
	},
	{
		"uri":"data:application/octet-stream;base64,",
		"byteLength":105168
	}],
	"materials":[{
		"pbrMetallicRoughness":{
			"baseColorFactor":[0.91,
			0.91,
			0.91,
			1.0],
			"metallicFactor":0.15,
			"roughnessFactor":0.5
		},
		"emissiveFactor":[0.0,
		0.0,
		0.0],
		"alphaMode":"OPAQUE",
		"doubleSided":true,
		"name":"mat-deck"
	},
	{
		"pbrMetallicRoughness":{
			"baseColorFactor":[0.76,
			0.5662,
			0.41800000000000006,
			1.0],
			"metallicFactor":0.0,
			"roughnessFactor":0.5
		},
		"emissiveFactor":[0.0,
		0.0,
		0.0],
		"alphaMode":"OPAQUE",
		"doubleSided":true,
		"name":"mat-shape"
	},
	{
		"pbrMetallicRoughness":{
			"baseColorFactor":[0.09,
			0.09,
			0.09,
			1.0],
			"metallicFactor":0.0,
			"roughnessFactor":0.5
		},
		"emissiveFactor":[0.0,
		0.0,
		0.0],
		"alphaMode":"OPAQUE",
		"doubleSided":true,
		"name":"mat-lixa"
	},
	{
		"pbrMetallicRoughness":{
			"baseColorFactor":[0.4032,
			0.6249599999999997,
			0.72,
			1.0],
			"metallicFactor":0.49,
			"roughnessFactor":0.25
		},
		"emissiveFactor":[0.0,
		0.0,
		0.0],
		"alphaMode":"OPAQUE",
		"doubleSided":true,
		"name":"mat-trucks"
	},
	{
		"pbrMetallicRoughness":{
			"baseColorFactor":[0.0,
			0.91,
			0.6673333333333335,
			1.0],
			"metallicFactor":0.5,
			"roughnessFactor":0.05
		},
		"emissiveFactor":[0.0,
		0.0,
		0.0],
		"alphaMode":"OPAQUE",
		"doubleSided":true,
		"name":"mat-amortecedores"
	},
	{
		"pbrMetallicRoughness":{
			"baseColorFactor":[0.0,
			0.91,
			0.6673333333333335,
			1.0],
			"metallicFactor":0.3,
			"roughnessFactor":0.3
		},
		"emissiveFactor":[0.0,
		0.0,
		0.0],
		"alphaMode":"OPAQUE",
		"doubleSided":true,
		"name":"mat-rodas"
	},
	{
		"pbrMetallicRoughness":{
			"baseColorFactor":[0.294,
			0.5184,
			0.6,
			1.0],
			"metallicFactor":0.5,
			"roughnessFactor":0.5
		},
		"emissiveFactor":[0.0,
		0.0,
		0.0],
		"alphaMode":"OPAQUE",
		"doubleSided":true,
		"name":"mat-rolamentos"
	},
	{
		"pbrMetallicRoughness":{
			"baseColorFactor":[0.44639999999999999,
			0.46711999999999989,
			0.48,
			1.0],
			"metallicFactor":0.38,
			"roughnessFactor":0.5
		},
		"emissiveFactor":[0.0,
		0.0,
		0.0],
		"alphaMode":"OPAQUE",
		"doubleSided":true,
		"name":"mat-parafusos"
	}]
}